<?xml version="1.0" encoding="UTF-8" standalone="no"?>
<!-- Created with Inkscape (http://www.inkscape.org/) -->

<svg
   xmlns:dc="http://purl.org/dc/elements/1.1/"
   xmlns:cc="http://creativecommons.org/ns#"
   xmlns:rdf="http://www.w3.org/1999/02/22-rdf-syntax-ns#"
   xmlns:svg="http://www.w3.org/2000/svg"
   xmlns="http://www.w3.org/2000/svg"
   xmlns:xlink="http://www.w3.org/1999/xlink"
   xmlns:sodipodi="http://sodipodi.sourceforge.net/DTD/sodipodi-0.dtd"
   xmlns:inkscape="http://www.inkscape.org/namespaces/inkscape"
   width="32px"
   height="32px"
   id="svg2985"
   version="1.1"
   inkscape:version="0.48.2 r9819"
   sodipodi:docname="hide_legend.svg">
  <defs
     id="defs2987">
    <linearGradient
       id="linearGradient3808">
      <stop
         style="stop-color:#ff0000;stop-opacity:1;"
         offset="0"
         id="stop3810" />
      <stop
         style="stop-color:#ff0000;stop-opacity:0;"
         offset="1"
         id="stop3812" />
    </linearGradient>
    <filter
       inkscape:collect="always"
       id="filter3804">
      <feGaussianBlur
         inkscape:collect="always"
         stdDeviation="0.1408812"
         id="feGaussianBlur3806" />
    </filter>
    <linearGradient
       inkscape:collect="always"
       xlink:href="#linearGradient3808"
       id="linearGradient3814"
       x1="19.371511"
       y1="29.943808"
       x2="28.635124"
       y2="15.531074"
       gradientUnits="userSpaceOnUse"
       gradientTransform="translate(0.32466,0.027055)" />
    <linearGradient
       inkscape:collect="always"
       xlink:href="#linearGradient3808"
       id="linearGradient3841"
       gradientUnits="userSpaceOnUse"
       gradientTransform="translate(0.32466,0.027055)"
       x1="19.371511"
       y1="29.943808"
       x2="28.635124"
       y2="15.531074" />
  </defs>
  <sodipodi:namedview
     id="base"
     pagecolor="#ffffff"
     bordercolor="#666666"
     borderopacity="1.0"
     inkscape:pageopacity="0.0"
     inkscape:pageshadow="2"
     inkscape:zoom="26.135724"
     inkscape:cx="7.5090892"
     inkscape:cy="15.741758"
     inkscape:current-layer="layer1"
     showgrid="true"
     inkscape:grid-bbox="true"
     inkscape:document-units="px"
     showguides="true"
     inkscape:guide-bbox="true"
     inkscape:window-width="1280"
     inkscape:window-height="1000"
     inkscape:window-x="9"
     inkscape:window-y="24"
     inkscape:window-maximized="1">
    <sodipodi:guide
       orientation="1,0"
       position="0,19.425621"
       id="guide2995" />
    <sodipodi:guide
       orientation="0,1"
       position="5.4651469,31.979226"
       id="guide2997" />
  </sodipodi:namedview>
  <metadata
     id="metadata2990">
    <rdf:RDF>
      <cc:Work
         rdf:about="">
        <dc:format>image/svg+xml</dc:format>
        <dc:type
           rdf:resource="http://purl.org/dc/dcmitype/StillImage" />
        <dc:title></dc:title>
      </cc:Work>
    </rdf:RDF>
  </metadata>
  <g
     id="layer1"
     inkscape:label="Layer 1"
     inkscape:groupmode="layer">
    <rect
       style="fill:#ffffff;stroke:#000000;stroke-width:1;stroke-linecap:round;stroke-linejoin:miter;stroke-miterlimit:4;stroke-opacity:1;stroke-dasharray:none;stroke-dashoffset:0"
       id="rect3769"
       width="19.556297"
       height="19.910654"
       x="4.9206281"
       y="4.6735692" />
    <path
       sodipodi:type="arc"
       style="fill:#ff0000;stroke:none;stroke-width:0.50052089000000000;stroke-miterlimit:4;stroke-dasharray:none"
       id="path3771"
       sodipodi:cx="10.172749"
       sodipodi:cy="10.139412"
       sodipodi:rx="2.0020835"
       sodipodi:ry="2.0020835"
       d="m 12.174832,10.139412 a 2.0020835,2.0020835 0 1 1 -4.004167,0 2.0020835,2.0020835 0 1 1 4.004167,0 z"
       transform="matrix(0.99895931,0,0,0.99895931,-1.2901454,-1.3921496)" />
    <path
       transform="matrix(0.99895931,0,0,0.99895931,-1.2901454,4.6078508)"
       d="m 12.174832,10.139412 a 2.0020835,2.0020835 0 1 1 -4.004167,0 2.0020835,2.0020835 0 1 1 4.004167,0 z"
       sodipodi:ry="2.0020835"
       sodipodi:rx="2.0020835"
       sodipodi:cy="10.139412"
       sodipodi:cx="10.172749"
       id="path3773"
       style="fill:#2a7fff;stroke:none;stroke-width:0.50052089000000000;stroke-miterlimit:4;stroke-dasharray:none"
       sodipodi:type="arc" />
    <path
       sodipodi:type="arc"
       style="fill:#d40000;stroke:none"
       id="path3775"
       sodipodi:cx="10.172749"
       sodipodi:cy="10.139412"
       sodipodi:rx="2.0020835"
       sodipodi:ry="2.0020835"
       d="m 12.174832,10.139412 a 2.0020835,2.0020835 0 1 1 -4.004167,0 2.0020835,2.0020835 0 1 1 4.004167,0 z"
       transform="matrix(0.99895931,0,0,0.99895931,-1.2901454,10.607846)" />
    <path
       style="fill:none;stroke:#000000;stroke-width:0.5;stroke-linecap:butt;stroke-linejoin:miter;stroke-miterlimit:4;stroke-opacity:1;stroke-dasharray:none"
       d="m 13.122016,9.512726 6.872017,0"
       id="path3777"
       inkscape:connector-curvature="0" />
    <path
       inkscape:connector-curvature="0"
       id="path3779"
       d="m 13.122016,15.512731 6.872017,0"
       style="fill:none;stroke:#000000;stroke-width:0.5;stroke-linecap:butt;stroke-linejoin:miter;stroke-miterlimit:4;stroke-opacity:1;stroke-dasharray:none" />
    <path
       style="fill:none;stroke:#000000;stroke-width:0.5;stroke-linecap:butt;stroke-linejoin:miter;stroke-miterlimit:4;stroke-opacity:1;stroke-dasharray:none"
       d="m 13.122016,21.512726 6.872017,0"
       id="path3781"
       inkscape:connector-curvature="0" />
    <path
       sodipodi:nodetypes="ccccccccccccc"
       inkscape:connector-curvature="0"
       id="path3798"
       d="m 18.745353,15.769885 c -1.534292,0.402512 -2.687287,1.300709 -3.12664,3.12664 l 3.382922,3.382923 -3.382922,3.434179 c 0.340427,1.999195 1.586622,2.763252 3.12664,3.126642 l 3.382924,-3.382924 3.382922,3.382924 c 1.614018,-0.444824 2.97629,-1.160761 3.177898,-3.126642 l -3.43418,-3.434179 3.43418,-3.382923 c -0.606358,-2.012803 -1.809257,-2.747301 -3.177898,-3.12664 l -3.382922,3.382922 z"
       style="fill:#666666;fill-opacity:1;fill-rule:evenodd;stroke:none" />
    <path
       style="fill:#d40000;fill-opacity:1;fill-rule:evenodd;stroke:none"
       d="m 18.745353,15.769885 c -1.534292,0.402512 -2.687287,1.300709 -3.12664,3.12664 l 3.382922,3.382923 -3.382922,3.434179 c 0.340427,1.999195 1.586622,2.763252 3.12664,3.126642 l 3.382924,-3.382924 3.382922,3.382924 c 1.614018,-0.444824 2.97629,-1.160761 3.177898,-3.126642 l -3.43418,-3.434179 3.43418,-3.382923 c -0.606358,-2.012803 -1.809257,-2.747301 -3.177898,-3.12664 l -3.382922,3.382922 z"
       id="rect3783"
       inkscape:connector-curvature="0"
       sodipodi:nodetypes="ccccccccccccc" />
    <path
       transform="matrix(0.99895931,0,0,0.99895931,-1.2901454,10.607846)"
       d="m 12.174832,10.139412 a 2.0020835,2.0020835 0 1 1 -4.004167,0 2.0020835,2.0020835 0 1 1 4.004167,0 z"
       sodipodi:ry="2.0020835"
       sodipodi:rx="2.0020835"
       sodipodi:cy="10.139412"
       sodipodi:cx="10.172749"
       id="path3843"
       style="fill:#ffcc00;stroke:none;stroke-width:0.50052089000000000;stroke-miterlimit:4;stroke-dasharray:none"
       sodipodi:type="arc" />
  </g>
</svg>
